<svg xmlns="http://www.w3.org/2000/svg" version="1.0" width="240.000000pt" height="256.000000pt" viewBox="0 0 240.000000 256.000000" preserveAspectRatio="xMidYMid meet">
<metadata fill="#6f1918">
Created by potrace 1.16, written by Peter Selinger 2001-2019
</metadata>
<g transform="translate(0.000000,256.000000) scale(0.100000,-0.100000)" fill="#6f1918" stroke="none">
<path d="M130 2445 c0 -75 4 -86 253 -755 l252 -679 65 -3 65 -3 2 -460 2 -460 201 -3 200 -2 0 465 0 465 296 2 297 3 249 674 249 674 -3 78 -3 79 -70 -48 c-63 -44 -110 -61 -458 -176 -255 -83 -387 -131 -384 -139 2 -7 12 -37 22 -67 9 -30 20 -58 24 -62 3 -4 150 40 325 98 175 57 320 103 322 101 5 -5 -376 -1038 -389 -1055 -7 -9 -64 -12 -241 -10 l-231 3 -3 156 -2 157 -201 -2 -201 -1 -1 -150 c-1 -82 -6 -152 -11 -155 -8 -5 -407 1051 -400 1059 7 8 254 -82 254 -92 0 -7 -15 -60 -33 -118 l-34 -106 189 -62 c104 -35 192 -61 195 -58 11 12 122 372 115 378 -4 3 -176 61 -382 128 -329 108 -384 128 -445 169 -38 26 -73 49 -77 50 -5 2 -8 -31 -8 -73z m890 -1205 l0 -80 -50 0 -50 0 0 80 0 80 50 0 50 0 0 -80z m0 -615 l0 -385 -50 0 -50 0 0 385 0 385 50 0 50 0 0 -385z" fill="#6f1918"/>
<path d="M1471 1679 c0 -4 -8 -44 -17 -90 -36 -191 -92 -186 -129 11 l-15 75 6 -75 c3 -41 12 -104 20 -140 37 -160 87 -143 120 40 7 41 14 77 15 80 0 3 7 -30 15 -73 23 -131 58 -186 90 -142 17 24 42 134 48 220 l6 70 -16 -74 c-18 -90 -38 -131 -63 -131 -30 0 -52 62 -75 210 -2 14 -4 22 -5 19z" fill="#6f1918"/>
<path d="M1353 846 l-73 -149 1 -301 0 -301 75 148 74 147 -2 303 -3 302 -72 -149z" fill="#6f1918"/>
<path d="M1593 840 l-73 -145 1 -300 1 -300 74 151 74 152 -2 293 -3 294 -72 -145z" fill="#6f1918"/>
</g>
</svg>