<svg xmlns="http://www.w3.org/2000/svg" version="1.0" width="540.000000pt" height="346.000000pt" viewBox="0 0 540.000000 346.000000" preserveAspectRatio="xMidYMid meet">
<metadata fill="#6f1918">
Created by potrace 1.16, written by Peter Selinger 2001-2019
</metadata>
<g transform="translate(0.000000,346.000000) scale(0.100000,-0.100000)" fill="#6f1918" stroke="none">
<path d="M2135 3251 c-42 -49 -65 -87 -81 -133 -15 -45 -45 -95 -97 -164 -104 -136 -141 -164 -277 -204 -41 -12 -92 -33 -112 -46 -41 -26 -88 -106 -88 -148 0 -33 -14 -40 -42 -22 -13 8 -75 36 -138 63 -110 46 -119 48 -210 48 -84 0 -102 -3 -152 -28 -116 -57 -204 -186 -228 -335 -13 -82 -4 -195 31 -375 37 -186 25 -282 -51 -439 -22 -46 -40 -95 -40 -109 0 -28 20 -52 40 -47 9 2 12 -17 11 -72 -5 -184 66 -310 239 -425 81 -54 188 -98 304 -125 137 -32 236 -24 344 27 78 36 179 139 221 223 64 132 86 339 57 535 -11 75 -11 96 0 128 49 138 251 292 454 346 147 39 328 35 426 -8 38 -17 45 -18 52 -4 7 11 14 3 30 -35 36 -84 33 -96 -63 -241 -29 -43 -46 -60 -62 -60 l-23 -1 0 -420 0 -420 130 0 130 0 0 145 0 145 220 0 220 0 0 -145 0 -145 260 0 260 0 0 145 0 145 540 0 540 0 0 275 0 275 -375 0 -375 0 0 -130 0 -130 245 0 c211 0 245 -2 245 -15 0 -13 -36 -15 -264 -15 l-264 0 0 143 0 142 -126 3 -126 3 0 -146 c0 -138 -1 -145 -20 -145 -19 0 -20 7 -20 145 l0 145 -260 0 -260 0 0 -145 c0 -122 -2 -145 -15 -145 -13 0 -15 23 -15 145 l0 145 -264 0 -264 0 45 102 c41 90 46 111 47 173 0 106 -35 161 -123 190 -30 10 -63 33 -96 67 -56 58 -141 102 -229 119 -63 11 -172 4 -193 -13 -7 -6 -13 -8 -13 -5 0 3 -22 -1 -50 -8 -50 -13 -50 -13 -50 10 0 13 5 27 11 31 18 11 49 94 49 133 0 24 -16 71 -46 131 -70 145 -72 167 -29 399 10 58 25 99 46 132 22 35 34 71 45 136 16 100 12 123 -20 123 -16 0 -41 -21 -81 -69z m84 40 c8 -6 10 -14 5 -22 -5 -8 -9 -39 -9 -69 0 -54 -37 -149 -68 -175 -7 -5 -12 -17 -12 -25 0 -8 -11 -17 -24 -18 -13 -2 -21 0 -18 5 3 5 -4 9 -16 9 -16 -1 -22 5 -24 26 -1 15 3 30 8 33 5 4 7 10 4 14 -8 14 25 112 35 106 6 -3 8 0 5 7 -3 7 15 33 40 57 25 25 45 49 45 53 0 10 11 10 29 -1z m-223 -406 c21 -14 53 -28 73 -31 l36 -6 0 -106 0 -107 48 -98 c32 -68 47 -112 47 -139 l0 -40 -52 7 c-105 13 -245 57 -353 109 -135 66 -258 151 -253 174 5 25 65 60 142 84 103 31 154 60 216 122 30 31 55 56 57 56 1 0 19 -11 39 -25z m-736 -297 c47 -17 88 -35 91 -40 3 -5 9 -9 13 -8 13 4 82 -28 95 -44 25 -30 -20 -176 -53 -176 -8 0 -24 27 -38 61 -56 147 -222 223 -347 159 -23 -11 -41 -18 -41 -15 0 3 -8 -2 -17 -10 -10 -8 -38 -32 -62 -52 -56 -48 -87 -98 -106 -170 -22 -84 -19 -136 20 -329 22 -111 35 -205 36 -260 1 -85 1 -86 -41 -147 -23 -33 -43 -66 -44 -72 -1 -5 -4 -14 -7 -20 -4 -5 -11 -26 -18 -45 -14 -45 -61 -97 -71 -80 -10 15 3 53 45 140 85 172 89 216 41 475 -37 200 -41 260 -21 346 63 281 250 383 525 287z m405 -58 c146 -88 288 -142 446 -170 84 -14 90 -17 83 -35 -8 -21 -44 -19 -152 10 -243 65 -546 226 -526 279 5 14 10 13 35 -8 16 -14 67 -48 114 -76z m-442 -11 c62 -31 93 -65 118 -128 12 -31 28 -63 36 -72 20 -23 16 -51 -18 -139 -56 -147 -150 -265 -288 -362 -47 -33 -111 -85 -142 -115 l-56 -54 -6 93 c-3 51 -18 149 -32 218 -37 169 -39 305 -7 374 33 72 67 113 126 150 68 44 100 54 169 55 40 1 71 -5 100 -20z m422 -91 c126 -66 403 -168 455 -168 16 0 31 -4 34 -9 5 -8 -46 -35 -69 -36 -24 -2 -273 89 -348 126 -103 52 -212 116 -227 134 -7 8 -9 23 -5 34 6 19 8 18 48 -12 23 -18 74 -49 112 -69z m-96 -12 c103 -62 263 -138 355 -167 50 -16 94 -29 98 -29 4 0 18 -4 32 -10 l26 -9 -51 -67 c-148 -196 -192 -396 -154 -699 33 -263 -16 -467 -146 -609 l-51 -56 -66 5 c-111 8 -152 16 -152 28 0 7 23 53 51 102 28 50 70 135 94 190 48 113 150 411 161 467 6 34 4 39 -20 47 -14 6 -47 13 -74 17 l-49 6 -21 -105 c-30 -152 -251 -697 -282 -697 -17 0 -175 61 -262 102 -84 39 -89 43 -83 67 11 46 70 163 163 324 122 210 149 251 215 326 31 36 54 69 51 73 -3 5 -28 27 -56 49 l-51 40 -25 -23 c-29 -27 -168 -236 -240 -361 -28 -49 -79 -151 -113 -228 -34 -76 -66 -139 -69 -139 -4 0 -30 18 -59 41 l-51 41 0 87 c0 143 64 289 181 415 62 66 92 91 229 193 60 44 171 181 214 262 19 36 42 92 51 125 9 32 28 74 41 93 22 33 44 92 44 121 0 18 6 16 69 -22z m568 -241 c31 -12 65 -13 193 -7 94 5 160 5 167 -1 7 -5 22 -7 33 -4 11 3 20 2 20 -3 0 -4 12 -11 26 -14 14 -4 42 -17 63 -30 38 -24 151 -141 151 -156 0 -5 -19 -2 -42 7 -28 10 -89 17 -174 21 -162 5 -249 -14 -402 -89 -86 -42 -116 -63 -186 -132 -45 -45 -90 -93 -98 -107 -15 -24 -15 -23 -11 30 11 131 50 250 115 359 31 52 95 136 105 140 2 1 20 -6 40 -14z m682 -135 c81 -41 113 -117 91 -214 -6 -26 -29 -90 -53 -141 -39 -87 -44 -95 -71 -95 l-28 0 17 28 c10 15 34 50 54 77 85 115 81 179 -21 291 -32 36 -58 67 -58 69 0 11 33 4 69 -15z m-1794 -1105 c209 -100 357 -148 517 -167 79 -9 95 -14 87 -25 -6 -7 -28 -18 -48 -24 -68 -20 -348 54 -516 138 -156 78 -274 152 -289 181 -37 74 -31 75 55 12 46 -34 133 -86 194 -115z m-148 3 c126 -85 364 -179 551 -218 84 -17 86 -18 48 -25 -80 -16 -205 0 -305 39 -173 67 -255 120 -341 220 -27 31 -19 29 47 -16z" fill="#6f1918"/>
<path d="M3940 1730 l0 -81 126 3 125 3 2 78 2 77 -37 0 -38 0 0 -45 c0 -25 -4 -45 -10 -45 -5 0 -10 20 -10 45 0 45 0 45 -35 45 -35 0 -35 0 -35 -45 0 -34 -4 -45 -16 -45 -12 0 -15 9 -12 43 3 41 2 42 -30 45 l-32 3 0 -81z" fill="#6f1918"/>
<path d="M4002 927 c-34 -34 -62 -67 -62 -72 0 -5 14 -23 30 -40 l30 -31 -30 -29 c-16 -16 -30 -34 -30 -40 0 -6 28 -39 63 -73 l63 -62 62 63 c34 34 62 67 62 73 0 6 -14 23 -30 39 l-30 29 30 31 c16 17 30 35 30 41 0 5 -28 38 -63 72 l-63 62 -62 -63z" fill="#6f1918"/>
</g>
</svg>